<?xml version="1.0" encoding="utf-8"?>
<!-- Generator: Adobe Illustrator 25.2.1, SVG Export Plug-In . SVG Version: 6.00 Build 0)  -->
<svg version="1.1" id="Layer_1" xmlns="http://www.w3.org/2000/svg" xmlns:xlink="http://www.w3.org/1999/xlink" x="0px" y="0px"
	 viewBox="0 0 595.28 841.89" style="enable-background:new 0 0 595.28 841.89;" xml:space="preserve">
<style type="text/css">
	.st0{fill:none;stroke:#000000;stroke-width:25;stroke-miterlimit:10;}
	.st1{fill:#FFFFFF;}
</style>
<path class="st0" d="M277.85,416.08c-16.18-9.36-27.06-26.84-27.06-46.87c0-29.89,24.23-54.11,54.11-54.11
	c19.96,0,37.39,10.8,46.77,26.88"/>
<path class="st0" d="M283.6,418.96c-1.98-0.84-3.9-1.81-5.74-2.87"/>
<path class="st0" d="M283.61,418.97c6.53,2.8,13.73,4.35,21.29,4.35c16.04,0,30.45-6.98,40.35-18.07"/>
<rect x="263.32" y="368.88" class="st1" width="13.04" height="101.81"/>
<path d="M303.09,344.88v66.81c0,4.03-3.26,7.28-7.28,7.28h-12.2l-0.01-0.01l-5.74-2.87l-0.01-0.01c-0.94-1.22-1.48-2.74-1.48-4.39
	v-45.65c0-11.69,9.47-21.16,21.16-21.16H303.09z"/>
</svg>
